999
DXF from OpenSCAD
  0
SECTION
  2
HEADER
  9
$ACADVER
  1
AC1006
  9
$INSBASE
 10
0.0
 20
0.0
 30
0.0
  9
$EXTMIN
 10
-17.3205
 20
-17.514
  9
$EXTMAX
 10
17.3205
 20
20
  9
$LINMIN
 10
-17.3205
 20
-17.514
  9
$LINMAX
 10
17.3205
 20
20
  0
ENDSEC
  0
SECTION
  2
TABLES
  0
TABLE
  2
LTYPE
 70
1
  0
LTYPE
  2
CONTINUOUS
 70
64
  3
Solid line
 72
65
 73
0
 40
0.000000
  0
ENDTAB
  0
TABLE
  2
LAYER
 70
6
  0
LAYER
  2
0
 70
64
 62
7
  6
CONTINUOUS
  0
ENDTAB
  0
TABLE
  2
STYLE
 70
0
  0
ENDTAB
  0
ENDSEC
  0
SECTION
  2
BLOCKS
  0
ENDSEC
  0
SECTION
  2
ENTITIES
  0
LWPOLYLINE
100
AcDbEntity
  8
0
100
AcDbPolyline
 90
1115
 70
1
 10
-4.20227
 20
-17.4968
 10
-3.93836
 20
-17.4565
 10
-3.67588
 20
-17.4204
 10
-3.4148
 20
-17.3883
 10
-3.15505
 20
-17.3603
 10
-2.9803
 20
-17.3441
 10
-2.6043
 20
-16.601
 10
-2.60396
 20
-16.5986
 10
-2.59824
 20
-16.5778
 10
-2.59226
 20
-16.5612
 10
-2.58604
 20
-16.5466
 10
-2.57948
 20
-16.5328
 10
-2.57248
 20
-16.5192
 10
-2.56499
 20
-16.5055
 10
-2.55697
 20
-16.4915
 10
-2.54839
 20
-16.4771
 10
-2.53925
 20
-16.4624
 10
-2.52957
 20
-16.4472
 10
-2.51934
 20
-16.4317
 10
-2.50858
 20
-16.4158
 10
-2.49732
 20
-16.3995
 10
-2.48557
 20
-16.3829
 10
-2.47335
 20
-16.366
 10
-2.46069
 20
-16.3489
 10
-2.44907
 20
-16.3335
 10
-2.41685
 20
-16.2888
 10
-2.38335
 20
-16.2378
 10
-2.34753
 20
-16.1788
 10
-2.30979
 20
-16.1124
 10
-2.27038
 20
-16.039
 10
-2.22954
 20
-15.959
 10
-2.18746
 20
-15.8728
 10
-2.14431
 20
-15.7808
 10
-2.10025
 20
-15.6832
 10
-2.05543
 20
-15.5804
 10
-2.00999
 20
-15.4727
 10
-1.96407
 20
-15.3604
 10
-1.9178
 20
-15.2439
 10
-1.87132
 20
-15.1234
 10
-1.82476
 20
-14.9992
 10
-1.77824
 20
-14.8717
 10
-1.7319
 20
-14.7411
 10
-1.68587
 20
-14.6078
 10
-1.64026
 20
-14.4719
 10
-1.5951
 20
-14.3336
 10
-1.54273
 20
-14.1712
 10
-1.49401
 20
-14.0208
 10
-1.44864
 20
-13.8818
 10
-1.40622
 20
-13.753
 10
-1.36636
 20
-13.6335
 10
-1.32866
 20
-13.522
 10
-1.29273
 20
-13.4177
 10
-1.25817
 20
-13.3195
 10
-1.2246
 20
-13.2263
 10
-1.19163
 20
-13.1371
 10
-1.15888
 20
-13.0509
 10
-1.12597
 20
-12.9667
 10
-1.09254
 20
-12.8836
 10
-1.0582
 20
-12.8004
 10
-1.0226
 20
-12.7163
 10
-0.985358
 20
-12.6302
 10
-0.946098
 20
-12.5411
 10
-0.904435
 20
-12.448
 10
-0.859982
 20
-12.3498
 10
-0.811752
 20
-12.2441
 10
-0.678713
 20
-11.9683
 10
-0.537314
 20
-11.7029
 10
-0.388532
 20
-11.4486
 10
-0.232734
 20
-11.2048
 10
-0.0702925
 20
-10.9708
 10
0.0984149
 20
-10.7461
 10
0.27301
 20
-10.53
 10
0.453114
 20
-10.322
 10
0.638349
 20
-10.1212
 10
0.828344
 20
-9.92723
 10
1.02273
 20
-9.73927
 10
1.22113
 20
-9.5567
 10
1.42321
 20
-9.37888
 10
1.62859
 20
-9.20513
 10
1.83694
 20
-9.0348
 10
2.0479
 20
-8.86722
 10
2.26115
 20
-8.70174
 10
2.47633
 20
-8.53768
 10
2.69313
 20
-8.3744
 10
2.91667
 20
-8.20715
 10
2.96953
 20
-8.17467
 10
3.01498
 20
-8.1469
 10
3.05879
 20
-8.12031
 10
3.10099
 20
-8.09492
 10
3.14165
 20
-8.07072
 10
3.18079
 20
-8.04773
 10
3.21847
 20
-8.02594
 10
3.25474
 20
-8.00535
 10
3.28966
 20
-7.98597
 10
3.3233
 20
-7.9678
 10
3.35573
 20
-7.95083
 10
3.38703
 20
-7.93507
 10
3.4173
 20
-7.92052
 10
3.44665
 20
-7.90718
 10
3.47521
 20
-7.89505
 10
3.50315
 20
-7.88416
 10
3.53066
 20
-7.87455
 10
3.55795
 20
-7.86626
 10
3.58531
 20
-7.85941
 10
4.66487
 20
-7.65567
 10
3.90994
 20
-8.03313
 10
3.91927
 20
-8.06663
 10
3.92673
 20
-8.11212
 10
3.93054
 20
-8.15864
 10
3.93155
 20
-8.20706
 10
3.93028
 20
-8.25809
 10
3.92706
 20
-8.31228
 10
3.92212
 20
-8.37003
 10
3.91563
 20
-8.43165
 10
3.90775
 20
-8.49738
 10
3.89861
 20
-8.56741
 10
3.88834
 20
-8.64189
 10
3.87708
 20
-8.72096
 10
3.86545
 20
-8.80119
 10
3.83306
 20
-9.13454
 10
3.791
 20
-9.47767
 10
3.74222
 20
-9.82385
 10
3.68904
 20
-10.1723
 10
3.63381
 20
-10.5222
 10
3.57881
 20
-10.8727
 10
3.52635
 20
-11.223
 10
3.47872
 20
-11.5721
 10
3.43816
 20
-11.9193
 10
3.40692
 20
-12.2635
 10
3.38723
 20
-12.6038
 10
3.38128
 20
-12.9394
 10
3.39121
 20
-13.2693
 10
3.41913
 20
-13.5926
 10
3.46712
 20
-13.9085
 10
3.53724
 20
-14.2163
 10
3.63155
 20
-14.5153
 10
3.75215
 20
-14.8049
 10
3.90129
 20
-15.0849
 10
4.08306
 20
-15.3573
 10
4.1701
 20
-15.4724
 10
4.25847
 20
-15.5843
 10
4.34728
 20
-15.6913
 10
4.43753
 20
-15.7943
 10
4.53026
 20
-15.8941
 10
4.62653
 20
-15.9917
 10
4.72742
 20
-16.0878
 10
4.834
 20
-16.1833
 10
4.94735
 20
-16.2791
 10
5.06852
 20
-16.3759
 10
5.19857
 20
-16.4746
 10
5.33851
 20
-16.5759
 10
5.48936
 20
-16.6805
 10
5.61002
 20
-16.7611
 10
7.84005
 20
-15.4735
 10
6.17125
 20
-13.8014
 10
5.68675
 20
-11.9247
 10
7.48376
 20
-10.8872
 10
8.86676
 20
-12.2452
 10
9.48046
 20
-14.5265
 10
17.3205
 20
-10
 10
17.3205
 20
0.218176
 10
17.2537
 20
0.2215
 10
17.0308
 20
0.237434
 10
16.8078
 20
0.258527
 10
16.5847
 20
0.285097
 10
16.3617
 20
0.317464
 10
16.1388
 20
0.355947
 10
15.9159
 20
0.400865
 10
15.6932
 20
0.452535
 10
15.4707
 20
0.511271
 10
15.2484
 20
0.57739
 10
15.028
 20
0.650692
 10
14.948
 20
0.678277
 10
14.8686
 20
0.704883
 10
14.7883
 20
0.731081
 10
14.7073
 20
0.756914
 10
14.6258
 20
0.782428
 10
14.5441
 20
0.807668
 10
14.4623
 20
0.832682
 10
14.3806
 20
0.857517
 10
14.2991
 20
0.882224
 10
14.2182
 20
0.906853
 10
14.1378
 20
0.931456
 10
14.0583
 20
0.956088
 10
13.9797
 20
0.980803
 10
13.9023
 20
1.00566
 10
13.8263
 20
1.03071
 10
13.7517
 20
1.05603
 10
13.6946
 20
1.0761
 10
13.7167
 20
0.749008
 10
13.717
 20
0.745121
 10
13.7175
 20
0.73591
 10
13.7183
 20
0.72129
 10
13.7193
 20
0.701744
 10
13.7205
 20
0.677745
 10
13.7218
 20
0.649762
 10
13.7232
 20
0.618264
 10
13.7246
 20
0.58372
 10
13.726
 20
0.546593
 10
13.7273
 20
0.507349
 10
13.7284
 20
0.466448
 10
13.7294
 20
0.424348
 10
13.7301
 20
0.381499
 10
13.7306
 20
0.338347
 10
13.7306
 20
0.295326
 10
13.7303
 20
0.252855
 10
13.7295
 20
0.211331
 10
13.7281
 20
0.171112
 10
13.7262
 20
0.132501
 10
13.7236
 20
0.0967888
 10
13.7122
 20
-0.0316765
 10
13.7008
 20
-0.159527
 10
13.6889
 20
-0.2878
 10
13.6765
 20
-0.416419
 10
13.6632
 20
-0.545306
 10
13.649
 20
-0.674384
 10
13.6336
 20
-0.803576
 10
13.6169
 20
-0.932805
 10
13.5987
 20
-1.062
 10
13.5787
 20
-1.19107
 10
13.5567
 20
-1.31995
 10
13.5327
 20
-1.44856
 10
13.5063
 20
-1.57682
 10
13.4774
 20
-1.70466
 10
13.4458
 20
-1.83198
 10
13.4113
 20
-1.95871
 10
13.3736
 20
-2.08476
 10
13.3327
 20
-2.21005
 10
13.2882
 20
-2.33448
 10
13.2408
 20
-2.45589
 10
13.2156
 20
-2.5205
 10
13.1912
 20
-2.58729
 10
13.1665
 20
-2.65771
 10
13.1414
 20
-2.73097
 10
13.1155
 20
-2.80634
 10
13.0886
 20
-2.88312
 10
13.0603
 20
-2.96065
 10
13.0303
 20
-3.03827
 10
12.9981
 20
-3.11536
 10
12.9633
 20
-3.19132
 10
12.9254
 20
-3.26556
 10
12.8838
 20
-3.33746
 10
12.8378
 20
-3.40637
 10
12.7868
 20
-3.47154
 10
12.7299
 20
-3.53203
 10
12.6665
 20
-3.58666
 10
12.596
 20
-3.63395
 10
12.5184
 20
-3.67222
 10
12.4342
 20
-3.69983
 10
12.3441
 20
-3.7156
 10
12.1891
 20
-3.72009
 10
12.0408
 20
-3.70176
 10
11.9003
 20
-3.66249
 10
11.7683
 20
-3.60477
 10
11.6449
 20
-3.53128
 10
11.5294
 20
-3.44452
 10
11.421
 20
-3.34667
 10
11.3186
 20
-3.2396
 10
11.2213
 20
-3.12496
 10
11.1281
 20
-3.00431
 10
11.0384
 20
-2.87913
 10
10.9513
 20
-2.75091
 10
10.8664
 20
-2.62114
 10
10.7829
 20
-2.4913
 10
10.7004
 20
-2.36293
 10
10.6184
 20
-2.23757
 10
10.5366
 20
-2.1168
 10
10.4545
 20
-2.00222
 10
10.3719
 20
-1.89541
 10
10.287
 20
-1.79604
 10
10.2401
 20
-1.74426
 10
10.1916
 20
-1.69066
 10
10.1431
 20
-1.63682
 10
10.0946
 20
-1.58269
 10
10.0463
 20
-1.52826
 10
9.99809
 20
-1.47348
 10
9.95013
 20
-1.41832
 10
9.90247
 20
-1.36273
 10
9.85518
 20
-1.3067
 10
9.80833
 20
-1.25017
 10
9.76197
 20
-1.19312
 10
9.71619
 20
-1.1355
 10
9.67105
 20
-1.07728
 10
9.62661
 20
-1.01842
 10
9.58296
 20
-0.958888
 10
9.54015
 20
-0.898639
 10
9.49826
 20
-0.83764
 10
9.45737
 20
-0.775852
 10
9.41755
 20
-0.713239
 10
9.37854
 20
-0.649237
 10
9.36083
 20
-0.618231
 10
9.34307
 20
-0.584807
 10
9.32558
 20
-0.54989
 10
9.30834
 20
-0.513728
 10
9.29136
 20
-0.476627
 10
9.27472
 20
-0.438935
 10
9.25848
 20
-0.401023
 10
9.24275
 20
-0.363278
 10
9.22761
 20
-0.326102
 10
9.21318
 20
-0.289904
 10
9.19957
 20
-0.255097
 10
9.18688
 20
-0.222102
 10
9.17523
 20
-0.191342
 10
9.16474
 20
-0.163242
 10
9.16373
 20
-0.160504
 10
8.79136
 20
-0.105936
 10
8.66388
 20
-0.0901894
 10
8.52506
 20
-0.0782594
 10
8.37464
 20
-0.0696572
 10
8.21421
 20
-0.0640616
 10
8.04527
 20
-0.0611124
 10
7.86925
 20
-0.0604275
 10
7.68757
 20
-0.0616134
 10
7.50159
 20
-0.0642692
 10
7.31267
 20
-0.06799
 10
7.12214
 20
-0.0723682
 10
6.93134
 20
-0.0769941
 10
6.74158
 20
-0.0814567
 10
6.55414
 20
-0.0853431
 10
6.37032
 20
-0.0882389
 10
6.19138
 20
-0.0897262
 10
6.01856
 20
-0.0893827
 10
5.85307
 20
-0.0867776
 10
5.69605
 20
-0.081465
 10
5.54858
 20
-0.0729705
 10
5.41251
 20
-0.0608443
 10
4.99759
 20
-0.0113613
 10
4.5959
 20
0.045445
 10
4.20724
 20
0.109477
 10
3.83203
 20
0.180561
 10
3.47074
 20
0.258526
 10
3.12378
 20
0.343209
 10
2.79159
 20
0.434451
 10
2.47461
 20
0.532101
 10
2.17325
 20
0.636019
 10
1.88794
 20
0.746078
 10
1.6191
 20
0.862169
 10
1.36714
 20
0.984203
 10
1.13248
 20
1.11212
 10
0.91555
 20
1.24589
 10
0.716794
 20
1.38554
 10
0.536697
 20
1.53111
 10
0.375809
 20
1.6827
 10
0.23478
 20
1.84045
 10
0.114402
 20
2.00443
 10
0.0162948
 20
2.17351
 10
-0.0247886
 20
2.26428
 10
-0.0592533
 20
2.35988
 10
-0.0878045
 20
2.46081
 10
-0.110716
 20
2.56683
 10
-0.128208
 20
2.67768
 10
-0.140451
 20
2.79316
 10
-0.147584
 20
2.91303
 10
-0.149712
 20
3.03707
 10
-0.146921
 20
3.16504
 10
-0.139282
 20
3.29668
 10
-0.126853
 20
3.43175
 10
-0.10968
 20
3.56998
 10
-0.0878068
 20
3.7111
 10
-0.0612689
 20
3.85483
 10
-0.0300987
 20
4.00089
 10
0.00567453
 20
4.14901
 10
0.0460242
 20
4.29888
 10
0.0909257
 20
4.45023
 10
0.140356
 20
4.60275
 10
0.19423
 20
4.75597
 10
0.23668
 20
4.86873
 10
0.281088
 20
4.97998
 10
0.327623
 20
5.09008
 10
0.37638
 20
5.19915
 10
0.427449
 20
5.30734
 10
0.480921
 20
5.41479
 10
0.536887
 20
5.52164
 10
0.595433
 20
5.62804
 10
0.656649
 20
5.73413
 10
0.720621
 20
5.84006
 10
0.787436
 20
5.94597
 10
0.857181
 20
6.05202
 10
0.929944
 20
6.15835
 10
1.00581
 20
6.26513
 10
1.08488
 20
6.37251
 10
1.16722
 20
6.48064
 10
1.25295
 20
6.58969
 10
1.34214
 20
6.69981
 10
1.43489
 20
6.81116
 10
1.53206
 20
6.92481
 10
1.7627
 20
7.1799
 10
2.01226
 20
7.43439
 10
2.27934
 20
7.68711
 10
2.56336
 20
7.93777
 10
2.86375
 20
8.18607
 10
3.17995
 20
8.4317
 10
3.51138
 20
8.67437
 10
3.85748
 20
8.91374
 10
4.21767
 20
9.14949
 10
4.5914
 20
9.38131
 10
4.97809
 20
9.60886
 10
5.37718
 20
9.83181
 10
5.78809
 20
10.0498
 10
6.21026
 20
10.2625
 10
6.64312
 20
10.4697
 10
7.08609
 20
10.6708
 10
7.53861
 20
10.8657
 10
8.0001
 20
11.0539
 10
8.46999
 20
11.2351
 10
8.94739
 20
11.4089
 10
9.2401
 20
11.5107
 10
9.53019
 20
11.6082
 10
9.81803
 20
11.7016
 10
10.1037
 20
11.791
 10
10.3872
 20
11.8762
 10
10.6687
 20
11.9573
 10
10.9481
 20
12.0344
 10
11.2256
 20
12.1073
 10
11.5013
 20
12.1761
 10
11.775
 20
12.2409
 10
12.047
 20
12.3015
 10
12.3173
 20
12.3581
 10
12.5858
 20
12.4105
 10
12.8528
 20
12.4589
 10
13.0147
 20
12.486
 10
9.45122
 20
14.5433
 10
11.0593
 20
16.1553
 10
11.5263
 20
17.9641
 10
9.79423
 20
18.9641
 10
8.46122
 20
17.6553
 10
7.86928
 20
15.4567
 10
0
 20
20
 10
-7.86928
 20
15.4567
 10
-8.46122
 20
17.6553
 10
-9.79423
 20
18.9641
 10
-11.5263
 20
17.9641
 10
-11.0593
 20
16.1553
 10
-9.45122
 20
14.5433
 10
-11.7105
 20
13.2389
 10
-11.6684
 20
13.2108
 10
-11.4928
 20
13.0973
 10
-11.3034
 20
12.9782
 10
-11.0991
 20
12.8528
 10
-10.8791
 20
12.7204
 10
-10.6424
 20
12.5802
 10
-10.3876
 20
12.4312
 10
-10.126
 20
12.2775
 10
-9.87752
 20
12.1284
 10
-9.64159
 20
11.9834
 10
-9.41738
 20
11.8417
 10
-9.204
 20
11.7025
 10
-9.00058
 20
11.5653
 10
-8.80626
 20
11.4292
 10
-8.6202
 20
11.2935
 10
-8.44153
 20
11.1575
 10
-8.26942
 20
11.0206
 10
-8.10303
 20
10.882
 10
-7.94154
 20
10.741
 10
-7.78411
 20
10.5971
 10
-7.6299
 20
10.4494
 10
-7.47809
 20
10.2974
 10
-7.32781
 20
10.1403
 10
-7.17821
 20
9.97751
 10
-7.02843
 20
9.80834
 10
-6.8776
 20
9.63208
 10
-6.72436
 20
9.4475
 10
-6.47425
 20
9.13186
 10
-6.23865
 20
8.81361
 10
-6.01796
 20
8.49316
 10
-5.81217
 20
8.17041
 10
-5.62128
 20
7.84529
 10
-5.44529
 20
7.51771
 10
-5.28421
 20
7.18758
 10
-5.13802
 20
6.85485
 10
-5.00672
 20
6.51944
 10
-4.89032
 20
6.18129
 10
-4.7888
 20
5.84034
 10
-4.70215
 20
5.49654
 10
-4.63037
 20
5.14984
 10
-4.57342
 20
4.80018
 10
-4.53128
 20
4.44751
 10
-4.50393
 20
4.09179
 10
-4.49132
 20
3.73297
 10
-4.49341
 20
3.37099
 10
-4.51017
 20
3.00579
 10
-4.54147
 20
2.63809
 10
-4.56446
 20
2.43441
 10
-4.59034
 20
2.23636
 10
-4.61936
 20
2.04267
 10
-4.65167
 20
1.85292
 10
-4.68742
 20
1.6667
 10
-4.72676
 20
1.48358
 10
-4.76983
 20
1.30316
 10
-4.81678
 20
1.12504
 10
-4.86775
 20
0.948806
 10
-4.92287
 20
0.774054
 10
-4.98228
 20
0.600382
 10
-5.04611
 20
0.427383
 10
-5.11449
 20
0.254649
 10
-5.18754
 20
0.0817676
 10
-5.26539
 20
-0.0916763
 10
-5.34817
 20
-0.266103
 10
-5.43601
 20
-0.441937
 10
-5.52902
 20
-0.619607
 10
-5.62735
 20
-0.799546
 10
-5.73118
 20
-0.982294
 10
-5.77452
 20
-1.05565
 10
-5.82114
 20
-1.13171
 10
-5.8708
 20
-1.21013
 10
-5.92329
 20
-1.29071
 10
-5.97842
 20
-1.37318
 10
-6.03599
 20
-1.45731
 10
-6.09578
 20
-1.54284
 10
-6.15761
 20
-1.62951
 10
-6.22126
 20
-1.71707
 10
-6.28653
 20
-1.80525
 10
-6.35321
 20
-1.89378
 10
-6.42109
 20
-1.9824
 10
-6.48996
 20
-2.07085
 10
-6.55962
 20
-2.15885
 10
-6.62986
 20
-2.24613
 10
-6.70048
 20
-2.33244
 10
-6.77126
 20
-2.4175
 10
-6.84201
 20
-2.50104
 10
-6.91251
 20
-2.5828
 10
-6.98443
 20
-2.66463
 10
-7.0007
 20
-2.68146
 10
-7.01912
 20
-2.69787
 10
-7.03712
 20
-2.7121
 10
-7.05451
 20
-2.72458
 10
-7.07113
 20
-2.73568
 10
-7.08688
 20
-2.74567
 10
-7.10161
 20
-2.75473
 10
-7.11516
 20
-2.763
 10
-7.12737
 20
-2.77053
 10
-7.13781
 20
-2.77719
 10
-7.13226
 20
-2.78327
 10
-7.12076
 20
-2.79399
 10
-7.10604
 20
-2.80605
 10
-7.08839
 20
-2.81912
 10
-7.06817
 20
-2.83299
 10
-7.04577
 20
-2.84757
 10
-7.02156
 20
-2.86286
 10
-6.9959
 20
-2.87891
 10
-6.96913
 20
-2.89587
 10
-6.94154
 20
-2.91395
 10
-6.91343
 20
-2.93341
 10
-6.88508
 20
-2.95461
 10
-6.85679
 20
-2.97799
 10
-6.82897
 20
-3.00409
 10
-6.8047
 20
-3.03071
 10
-6.74502
 20
-3.10223
 10
-6.68712
 20
-3.17158
 10
-6.629
 20
-3.24143
 10
-6.57083
 20
-3.31184
 10
-6.5128
 20
-3.38286
 10
-6.45507
 20
-3.45455
 10
-6.39783
 20
-3.52697
 10
-6.34126
 20
-3.60017
 10
-6.28554
 20
-3.67421
 10
-6.23086
 20
-3.74916
 10
-6.1774
 20
-3.82508
 10
-6.12533
 20
-3.90204
 10
-6.07487
 20
-3.98009
 10
-6.02619
 20
-4.0593
 10
-5.97948
 20
-4.13975
 10
-5.93496
 20
-4.22149
 10
-5.89281
 20
-4.30459
 10
-5.85325
 20
-4.3891
 10
-5.81648
 20
-4.47508
 10
-5.78255
 20
-4.563
 10
-5.72791
 20
-4.72545
 10
-5.68253
 20
-4.88716
 10
-5.64619
 20
-5.04762
 10
-5.61849
 20
-5.20679
 10
-5.59901
 20
-5.36463
 10
-5.58733
 20
-5.52112
 10
-5.58301
 20
-5.67623
 10
-5.58559
 20
-5.82994
 10
-5.59463
 20
-5.98225
 10
-5.60967
 20
-6.13318
 10
-5.63025
 20
-6.28273
 10
-5.65592
 20
-6.43095
 10
-5.68622
 20
-6.57786
 10
-5.72071
 20
-6.72351
 10
-5.75894
 20
-6.86795
 10
-5.80047
 20
-7.01124
 10
-5.84486
 20
-7.15342
 10
-5.89168
 20
-7.29456
 10
-5.94051
 20
-7.43471
 10
-5.99121
 20
-7.57471
 10
-6.00052
 20
-7.59885
 10
-6.01085
 20
-7.62338
 10
-6.02189
 20
-7.64758
 10
-6.03362
 20
-7.67143
 10
-6.04601
 20
-7.69492
 10
-6.05905
 20
-7.71804
 10
-6.07271
 20
-7.74078
 10
-6.08697
 20
-7.76314
 10
-6.10182
 20
-7.7851
 10
-6.11722
 20
-7.80665
 10
-6.13318
 20
-7.82778
 10
-6.14966
 20
-7.84849
 10
-6.16665
 20
-7.86876
 10
-6.18413
 20
-7.88857
 10
-6.2021
 20
-7.90793
 10
-6.22052
 20
-7.92682
 10
-6.2394
 20
-7.94522
 10
-6.25871
 20
-7.96312
 10
-6.27844
 20
-7.98051
 10
-6.29817
 20
-7.99703
 10
-6.3087
 20
-8.00554
 10
-6.31817
 20
-8.01339
 10
-6.32873
 20
-8.02225
 10
-6.34022
 20
-8.0319
 10
-6.35262
 20
-8.0422
 10
-6.36589
 20
-8.05298
 10
-6.38004
 20
-8.06409
 10
-6.39512
 20
-8.07541
 10
-6.41121
 20
-8.08678
 10
-6.42845
 20
-8.09806
 10
-6.44701
 20
-8.1091
 10
-6.46714
 20
-8.11966
 10
-6.48911
 20
-8.12947
 10
-6.51325
 20
-8.13811
 10
-6.53984
 20
-8.145
 10
-6.56899
 20
-8.14934
 10
-6.60049
 20
-8.15016
 10
-6.63359
 20
-8.14651
 10
-6.66702
 20
-8.13774
 10
-6.70048
 20
-8.12331
 10
-6.74923
 20
-8.09188
 10
-6.7911
 20
-8.05133
 10
-6.82305
 20
-8.00494
 10
-6.84477
 20
-7.95635
 10
-6.85783
 20
-7.90833
 10
-6.8644
 20
-7.86214
 10
-6.86642
 20
-7.81798
 10
-6.86534
 20
-7.77567
 10
-6.86224
 20
-7.73494
 10
-6.85791
 20
-7.69564
 10
-6.853
 20
-7.65775
 10
-6.84809
 20
-7.6214
 10
-6.84367
 20
-7.58683
 10
-6.84018
 20
-7.55438
 10
-6.83797
 20
-7.52453
 10
-6.8373
 20
-7.49783
 10
-6.83824
 20
-7.47487
 10
-6.8406
 20
-7.45621
 10
-6.84395
 20
-7.44212
 10
-6.84951
 20
-7.42752
 10
-6.86915
 20
-7.3866
 10
-6.89094
 20
-7.34378
 10
-6.913
 20
-7.3031
 10
-6.9355
 20
-7.26429
 10
-6.95864
 20
-7.22708
 10
-6.98262
 20
-7.19116
 10
-7.00767
 20
-7.15623
 10
-7.03403
 20
-7.12201
 10
-7.06195
 20
-7.08819
 10
-7.09168
 20
-7.05451
 10
-7.12346
 20
-7.02071
 10
-7.15756
 20
-6.98655
 10
-7.1942
 20
-6.9518
 10
-7.23361
 20
-6.91625
 10
-7.276
 20
-6.87972
 10
-7.32156
 20
-6.84201
 10
-7.37048
 20
-6.80293
 10
-7.42294
 20
-6.76231
 10
-7.47911
 20
-6.71996
 10
-7.53871
 20
-6.67602
 10
-7.56365
 20
-6.65827
 10
-7.59201
 20
-6.6389
 10
-7.62393
 20
-6.61782
 10
-7.65904
 20
-6.59527
 10
-7.69703
 20
-6.57145
 10
-7.73761
 20
-6.54654
 10
-7.78049
 20
-6.52069
 10
-7.82542
 20
-6.49407
 10
-7.87213
 20
-6.46684
 10
-7.92035
 20
-6.43913
 10
-7.96985
 20
-6.4111
 10
-8.02036
 20
-6.38289
 10
-8.07163
 20
-6.35464
 10
-8.12342
 20
-6.3265
 10
-8.17546
 20
-6.29861
 10
-8.22752
 20
-6.27111
 10
-8.27934
 20
-6.24414
 10
-8.33066
 20
-6.21785
 10
-8.38124
 20
-6.19239
 10
-8.43192
 20
-6.16733
 10
-8.54282
 20
-6.11134
 10
-8.64604
 20
-6.05571
 10
-8.74117
 20
-6.00082
 10
-8.82884
 20
-5.94648
 10
-8.90966
 20
-5.89255
 10
-8.98422
 20
-5.83889
 10
-9.05309
 20
-5.78539
 10
-9.11682
 20
-5.73198
 10
-9.17597
 20
-5.67861
 10
-9.23109
 20
-5.62527
 10
-9.28274
 20
-5.57196
 10
-9.33152
 20
-5.51867
 10
-9.37804
 20
-5.46539
 10
-9.42296
 20
-5.41208
 10
-9.46692
 20
-5.35863
 10
-9.51063
 20
-5.30492
 10
-9.55477
 20
-5.25076
 10
-9.60006
 20
-5.19593
 10
-9.6472
 20
-5.14019
 10
-9.6993
 20
-5.08058
 10
-9.71718
 20
-5.05892
 10
-9.7349
 20
-5.03422
 10
-9.75045
 20
-5.00971
 10
-9.76417
 20
-4.98564
 10
-9.77641
 20
-4.96221
 10
-9.78744
 20
-4.93957
 10
-9.79753
 20
-4.91787
 10
-9.80688
 20
-4.89724
 10
-9.81565
 20
-4.87784
 10
-9.82397
 20
-4.8598
 10
-9.83192
 20
-4.84329
 10
-9.83955
 20
-4.82847
 10
-9.84683
 20
-4.81548
 10
-9.85372
 20
-4.80443
 10
-9.86011
 20
-4.79536
 10
-9.86591
 20
-4.78823
 10
-9.87104
 20
-4.78285
 10
-9.87555
 20
-4.7789
 10
-9.87968
 20
-4.77596
 10
-9.88425
 20
-4.77337
 10
-9.89401
 20
-4.76911
 10
-9.90477
 20
-4.76559
 10
-9.91673
 20
-4.76282
 10
-9.93021
 20
-4.76083
 10
-9.94537
 20
-4.75971
 10
-9.96226
 20
-4.75952
 10
-9.98085
 20
-4.76031
 10
-10.001
 20
-4.76207
 10
-10.0227
 20
-4.76476
 10
-10.0457
 20
-4.76827
 10
-10.07
 20
-4.77248
 10
-10.0954
 20
-4.77725
 10
-10.122
 20
-4.78239
 10
-10.1495
 20
-4.78771
 10
-10.1781
 20
-4.793
 10
-10.2076
 20
-4.79803
 10
-10.2381
 20
-4.80255
 10
-10.2697
 20
-4.80628
 10
-10.3023
 20
-4.80891
 10
-10.3328
 20
-4.80998
 10
-10.3949
 20
-4.81133
 10
-10.4538
 20
-4.81395
 10
-10.5126
 20
-4.81768
 10
-10.5715
 20
-4.82225
 10
-10.6308
 20
-4.82743
 10
-10.6905
 20
-4.83293
 10
-10.7508
 20
-4.83849
 10
-10.812
 20
-4.84382
 10
-10.874
 20
-4.84862
 10
-10.9371
 20
-4.85258
 10
-11.0013
 20
-4.85537
 10
-11.0669
 20
-4.85668
 10
-11.1338
 20
-4.85618
 10
-11.2021
 20
-4.85353
 10
-11.272
 20
-4.8484
 10
-11.3435
 20
-4.84048
 10
-11.4166
 20
-4.82947
 10
-11.4913
 20
-4.81506
 10
-11.5678
 20
-4.79697
 10
-11.6448
 20
-4.77531
 10
-11.6828
 20
-4.76364
 10
-11.7191
 20
-4.75228
 10
-11.7547
 20
-4.74089
 10
-11.7897
 20
-4.72952
 10
-11.8239
 20
-4.7182
 10
-11.8571
 20
-4.70697
 10
-11.8893
 20
-4.6959
 10
-11.9203
 20
-4.685
 10
-11.95
 20
-4.67432
 10
-11.9784
 20
-4.66391
 10
-12.0052
 20
-4.65378
 10
-12.0306
 20
-4.64397
 10
-12.0543
 20
-4.63449
 10
-12.0764
 20
-4.62534
 10
-12.0969
 20
-4.61647
 10
-12.1159
 20
-4.60778
 10
-12.1338
 20
-4.599
 10
-12.1514
 20
-4.58948
 10
-12.1708
 20
-4.57733
 10
-12.1808
 20
-4.56943
 10
-12.1854
 20
-4.56695
 10
-12.1964
 20
-4.56148
 10
-12.2114
 20
-4.55451
 10
-12.2298
 20
-4.54636
 10
-12.251
 20
-4.53726
 10
-12.275
 20
-4.52732
 10
-12.3013
 20
-4.51666
 10
-12.3298
 20
-4.50536
 10
-12.3604
 20
-4.4935
 10
-12.3928
 20
-4.48115
 10
-12.4269
 20
-4.46837
 10
-12.4625
 20
-4.45524
 10
-12.4994
 20
-4.44182
 10
-12.5375
 20
-4.42817
 10
-12.5767
 20
-4.41434
 10
-12.6167
 20
-4.40041
 10
-12.6575
 20
-4.38643
 10
-12.6968
 20
-4.37313
 10
-12.7806
 20
-4.34786
 10
-12.863
 20
-4.32818
 10
-12.9464
 20
-4.31301
 10
-13.0308
 20
-4.30195
 10
-13.1163
 20
-4.29457
 10
-13.2029
 20
-4.29046
 10
-13.2905
 20
-4.28921
 10
-13.3791
 20
-4.29036
 10
-13.4687
 20
-4.29348
 10
-13.5592
 20
-4.2981
 10
-13.6507
 20
-4.30373
 10
-13.7429
 20
-4.30987
 10
-13.836
 20
-4.31604
 10
-13.9299
 20
-4.32169
 10
-14.0246
 20
-4.3263
 10
-14.1199
 20
-4.32931
 10
-14.2159
 20
-4.33017
 10
-14.3126
 20
-4.32829
 10
-14.4099
 20
-4.32309
 10
-14.5043
 20
-4.31428
 10
-14.5207
 20
-4.31278
 10
-14.5358
 20
-4.31201
 10
-14.5529
 20
-4.31165
 10
-14.5718
 20
-4.31164
 10
-14.5921
 20
-4.31189
 10
-14.6137
 20
-4.31226
 10
-14.6365
 20
-4.31261
 10
-14.6603
 20
-4.31275
 10
-14.6851
 20
-4.31248
 10
-14.7107
 20
-4.31157
 10
-14.7373
 20
-4.30973
 10
-14.7649
 20
-4.30663
 10
-14.7934
 20
-4.30184
 10
-14.8229
 20
-4.29483
 10
-14.8533
 20
-4.28495
 10
-14.8843
 20
-4.27145
 10
-14.9153
 20
-4.25357
 10
-14.9452
 20
-4.2308
 10
-14.9728
 20
-4.20306
 10
-14.9963
 20
-4.17131
 10
-15.0143
 20
-4.13824
 10
-15.0275
 20
-4.1042
 10
-15.0359
 20
-4.06984
 10
-15.0401
 20
-4.03608
 10
-15.0405
 20
-4.00352
 10
-15.0379
 20
-3.97248
 10
-15.0329
 20
-3.94305
 10
-15.0261
 20
-3.91516
 10
-15.0177
 20
-3.88868
 10
-15.0082
 20
-3.86349
 10
-14.9978
 20
-3.83944
 10
-14.9868
 20
-3.81644
 10
-14.9752
 20
-3.79441
 10
-14.9633
 20
-3.7733
 10
-14.9513
 20
-3.75308
 10
-14.9392
 20
-3.73375
 10
-14.9273
 20
-3.71532
 10
-14.9157
 20
-3.69784
 10
-14.9045
 20
-3.68136
 10
-14.8934
 20
-3.66512
 10
-14.8033
 20
-3.53752
 10
-14.7088
 20
-3.41122
 10
-14.6104
 20
-3.28717
 10
-14.5083
 20
-3.16556
 10
-14.4024
 20
-3.04658
 10
-14.2928
 20
-2.93043
 10
-14.1794
 20
-2.8173
 10
-14.0622
 20
-2.70738
 10
-13.9413
 20
-2.60088
 10
-13.8167
 20
-2.498
 10
-13.6885
 20
-2.39892
 10
-13.5565
 20
-2.30386
 10
-13.4209
 20
-2.21301
 10
-13.2816
 20
-2.12659
 10
-13.1387
 20
-2.04478
 10
-12.9922
 20
-1.9678
 10
-12.8422
 20
-1.89585
 10
-12.6886
 20
-1.82913
 10
-12.5315
 20
-1.76785
 10
-12.3703
 20
-1.71202
 10
-12.2348
 20
-1.67205
 10
-12.0988
 20
-1.63977
 10
-11.9632
 20
-1.61469
 10
-11.8281
 20
-1.59617
 10
-11.6936
 20
-1.58352
 10
-11.5596
 20
-1.57606
 10
-11.4264
 20
-1.57312
 10
-11.2938
 20
-1.57402
 10
-11.162
 20
-1.5781
 10
-11.0308
 20
-1.5847
 10
-10.9003
 20
-1.5932
 10
-10.7706
 20
-1.60295
 10
-10.6415
 20
-1.61334
 10
-10.5131
 20
-1.62375
 10
-10.3855
 20
-1.63359
 10
-10.2585
 20
-1.64225
 10
-10.1323
 20
-1.64916
 10
-10.0068
 20
-1.65374
 10
-9.88202
 20
-1.65544
 10
-9.7549
 20
-1.65365
 10
-9.72599
 20
-1.6535
 10
-9.69484
 20
-1.65464
 10
-9.66462
 20
-1.65676
 10
-9.63531
 20
-1.65956
 10
-9.60692
 20
-1.66279
 10
-9.57946
 20
-1.6662
 10
-9.55298
 20
-1.66959
 10
-9.52755
 20
-1.67277
 10
-9.50326
 20
-1.67555
 10
-9.48023
 20
-1.67779
 10
-9.45859
 20
-1.67936
 10
-9.43851
 20
-1.68015
 10
-9.42013
 20
-1.68013
 10
-9.40361
 20
-1.67927
 10
-9.38906
 20
-1.67764
 10
-9.37651
 20
-1.67533
 10
-9.36588
 20
-1.67248
 10
-9.35692
 20
-1.66919
 10
-9.34923
 20
-1.66546
 10
-9.34154
 20
-1.66068
 10
-9.26877
 20
-1.60495
 10
-9.2
 20
-1.54248
 10
-9.13563
 20
-1.47398
 10
-9.0756
 20
-1.39982
 10
-9.01985
 20
-1.32041
 10
-8.96838
 20
-1.23619
 10
-8.92117
 20
-1.14767
 10
-8.87818
 20
-1.05537
 10
-8.83939
 20
-0.95983
 10
-8.80474
 20
-0.861624
 10
-8.77417
 20
-0.761323
 10
-8.74762
 20
-0.659511
 10
-8.72498
 20
-0.556774
 10
-8.70617
 20
-0.453703
 10
-8.69108
 20
-0.350891
 10
-8.6796
 20
-0.248933
 10
-8.6716
 20
-0.148429
 10
-8.66695
 20
-0.0499831
 10
-8.66553
 20
0.0457943
 10
-8.66718
 20
0.138176
 10
-8.67308
 20
0.249257
 10
-8.68283
 20
0.356176
 10
-8.69632
 20
0.459229
 10
-8.71344
 20
0.558624
 10
-8.73408
 20
0.654576
 10
-8.75816
 20
0.747305
 10
-8.78557
 20
0.837035
 10
-8.81624
 20
0.92399
 10
-8.85009
 20
1.00839
 10
-8.88707
 20
1.09046
 10
-8.92711
 20
1.17041
 10
-8.97016
 20
1.24844
 10
-9.01618
 20
1.32475
 10
-9.0651
 20
1.39954
 10
-9.11688
 20
1.47297
 10
-9.17147
 20
1.54523
 10
-9.22881
 20
1.61648
 10
-9.28883
 20
1.68687
 10
-9.35146
 20
1.75657
 10
-9.4157
 20
1.82473
 10
-9.47508
 20
1.88293
 10
-9.53676
 20
1.93707
 10
-9.6016
 20
1.98833
 10
-9.66946
 20
2.03693
 10
-9.74018
 20
2.08304
 10
-9.81359
 20
2.12685
 10
-9.88949
 20
2.16854
 10
-9.96767
 20
2.2083
 10
-10.0479
 20
2.24631
 10
-10.13
 20
2.28278
 10
-10.2137
 20
2.31788
 10
-10.2988
 20
2.35185
 10
-10.385
 20
2.38488
 10
-10.4722
 20
2.41719
 10
-10.56
 20
2.44901
 10
-10.6483
 20
2.48057
 10
-10.7369
 20
2.51211
 10
-10.8254
 20
2.54386
 10
-10.9138
 20
2.57607
 10
-11.0009
 20
2.60871
 10
-11.1001
 20
2.64597
 10
-11.1989
 20
2.68212
 10
-11.2982
 20
2.71738
 10
-11.3978
 20
2.75174
 10
-11.4977
 20
2.78518
 10
-11.598
 20
2.81767
 10
-11.6987
 20
2.84918
 10
-11.7996
 20
2.8797
 10
-11.9009
 20
2.9092
 10
-12.0024
 20
2.93766
 10
-12.1042
 20
2.96505
 10
-12.2063
 20
2.99136
 10
-12.3087
 20
3.01655
 10
-12.4113
 20
3.04061
 10
-12.5141
 20
3.06351
 10
-12.6171
 20
3.08523
 10
-12.7203
 20
3.10575
 10
-12.8237
 20
3.12504
 10
-12.9273
 20
3.14308
 10
-13.0308
 20
3.15981
 10
-13.1002
 20
3.16993
 10
-13.1696
 20
3.17877
 10
-13.2393
 20
3.18646
 10
-13.3094
 20
3.19308
 10
-13.3797
 20
3.19872
 10
-13.4503
 20
3.20344
 10
-13.5213
 20
3.20734
 10
-13.5924
 20
3.21049
 10
-13.6639
 20
3.21298
 10
-13.7356
 20
3.2149
 10
-13.8075
 20
3.21633
 10
-13.8796
 20
3.21736
 10
-13.952
 20
3.21806
 10
-14.0245
 20
3.21854
 10
-14.0972
 20
3.21887
 10
-14.1701
 20
3.21914
 10
-14.2432
 20
3.21945
 10
-14.3164
 20
3.21989
 10
-14.3897
 20
3.22054
 10
-14.4626
 20
3.22148
 10
-14.545
 20
3.22244
 10
-14.6338
 20
3.22289
 10
-14.7284
 20
3.22291
 10
-14.8274
 20
3.22253
 10
-14.9297
 20
3.22179
 10
-15.0341
 20
3.22076
 10
-15.1393
 20
3.21947
 10
-15.2442
 20
3.21797
 10
-15.3475
 20
3.21632
 10
-15.4481
 20
3.21455
 10
-15.5447
 20
3.21273
 10
-15.6362
 20
3.21089
 10
-15.7214
 20
3.20908
 10
-15.7947
 20
3.20746
 10
-15.7946
 20
3.20721
 10
-15.7414
 20
3.12245
 10
-15.6822
 20
3.03121
 10
-15.6178
 20
2.93419
 10
-15.5491
 20
2.83204
 10
-15.4769
 20
2.72534
 10
-15.4021
 20
2.61467
 10
-15.3255
 20
2.50055
 10
-15.248
 20
2.38352
 10
-15.1703
 20
2.26407
 10
-15.0933
 20
2.14271
 10
-15.0178
 20
2.01991
 10
-14.9446
 20
1.89613
 10
-14.8745
 20
1.77183
 10
-14.8083
 20
1.64742
 10
-14.7468
 20
1.5233
 10
-14.6908
 20
1.39982
 10
-14.6424
 20
1.27998
 10
-14.6301
 20
1.24877
 10
-14.6175
 20
1.21851
 10
-14.6037
 20
1.18669
 10
-14.5891
 20
1.15349
 10
-14.5739
 20
1.11905
 10
-14.5585
 20
1.08349
 10
-14.5431
 20
1.04687
 10
-14.528
 20
1.00924
 10
-14.5136
 20
0.970607
 10
-14.5003
 20
0.930953
 10
-14.4883
 20
0.890228
 10
-14.4781
 20
0.848358
 10
-14.4702
 20
0.805257
 10
-14.4651
 20
0.760858
 10
-14.4635
 20
0.715162
 10
-14.4661
 20
0.668307
 10
-14.4737
 20
0.620654
 10
-14.487
 20
0.572845
 10
-14.5065
 20
0.525778
 10
-14.5324
 20
0.480525
 10
-14.5591
 20
0.444878
 10
-14.5893
 20
0.413546
 10
-14.6219
 20
0.386748
 10
-14.6561
 20
0.364346
 10
-14.6912
 20
0.345952
 10
-14.7265
 20
0.331059
 10
-14.7619
 20
0.319136
 10
-14.7971
 20
0.309687
 10
-14.8321
 20
0.302279
 10
-14.8666
 20
0.296537
 10
-14.9007
 20
0.292143
 10
-14.9343
 20
0.288818
 10
-14.9672
 20
0.286321
 10
-14.9995
 20
0.284433
 10
-15.0309
 20
0.282956
 10
-15.0612
 20
0.281709
 10
-15.0904
 20
0.280526
 10
-15.1182
 20
0.279254
 10
-15.1444
 20
0.277761
 10
-15.17
 20
0.275837
 10
-15.3893
 20
0.257732
 10
-15.6102
 20
0.241532
 10
-15.8314
 20
0.227642
 10
-16.0529
 20
0.216374
 10
-16.2747
 20
0.208044
 10
-16.4968
 20
0.202966
 10
-16.7192
 20
0.201455
 10
-16.9417
 20
0.203829
 10
-17.1644
 20
0.210404
 10
-17.3205
 20
0.218176
 10
-17.3205
 20
-10
 10
-9.48046
 20
-14.5265
 10
-8.86676
 20
-12.2452
 10
-7.48376
 20
-10.8872
 10
-5.68675
 20
-11.9247
 10
-6.17125
 20
-13.8014
 10
-7.84005
 20
-15.4735
 10
-4.30581
 20
-17.514
  0
ENDSEC
  0
EOF
