999
DXF from OpenSCAD
  0
SECTION
  2
HEADER
  9
$ACADVER
  1
AC1006
  9
$INSBASE
 10
0.0
 20
0.0
 30
0.0
  9
$EXTMIN
 10
0.100335
 20
-7.89898
  9
$EXTMAX
 10
29.8997
 20
21.8997
  9
$LINMIN
 10
0.100335
 20
-7.89898
  9
$LINMAX
 10
29.8997
 20
21.8997
  0
ENDSEC
  0
SECTION
  2
TABLES
  0
TABLE
  2
LTYPE
 70
1
  0
LTYPE
  2
CONTINUOUS
 70
64
  3
Solid line
 72
65
 73
0
 40
0.000000
  0
ENDTAB
  0
TABLE
  2
LAYER
 70
6
  0
LAYER
  2
0
 70
64
 62
7
  6
CONTINUOUS
  0
ENDTAB
  0
TABLE
  2
STYLE
 70
0
  0
ENDTAB
  0
ENDSEC
  0
SECTION
  2
BLOCKS
  0
ENDSEC
  0
SECTION
  2
ENTITIES
  0
LWPOLYLINE
100
AcDbEntity
  8
0
100
AcDbPolyline
 90
1107
 70
1
 10
28.0541
 20
-7.89894
 10
28.0587
 20
-7.89731
 10
28.0647
 20
-7.89461
 10
28.072
 20
-7.89081
 10
28.0802
 20
-7.88593
 10
28.0891
 20
-7.88005
 10
28.0987
 20
-7.87329
 10
28.1087
 20
-7.86578
 10
28.1191
 20
-7.85764
 10
28.1297
 20
-7.84901
 10
28.1405
 20
-7.84002
 10
28.1515
 20
-7.83079
 10
28.1627
 20
-7.82142
 10
28.174
 20
-7.81202
 10
28.1841
 20
-7.80392
 10
28.1996
 20
-7.79088
 10
28.2146
 20
-7.77765
 10
28.2294
 20
-7.76401
 10
28.2437
 20
-7.74998
 10
28.2578
 20
-7.73558
 10
28.2715
 20
-7.72082
 10
28.2848
 20
-7.70573
 10
28.2977
 20
-7.69032
 10
28.3102
 20
-7.67461
 10
28.3223
 20
-7.65862
 10
28.3339
 20
-7.64237
 10
28.3451
 20
-7.62588
 10
28.3557
 20
-7.60917
 10
28.3659
 20
-7.59225
 10
28.3755
 20
-7.57516
 10
28.3846
 20
-7.5579
 10
28.3932
 20
-7.5405
 10
28.4012
 20
-7.52297
 10
28.4086
 20
-7.50534
 10
28.4156
 20
-7.48715
 10
28.4649
 20
-7.35101
 10
28.5126
 20
-7.21407
 10
28.5582
 20
-7.0768
 10
28.6011
 20
-6.93918
 10
28.6411
 20
-6.80117
 10
28.6778
 20
-6.66272
 10
28.7107
 20
-6.52379
 10
28.7394
 20
-6.38435
 10
28.7637
 20
-6.24435
 10
28.783
 20
-6.10373
 10
28.7971
 20
-5.96244
 10
28.8056
 20
-5.82043
 10
28.808
 20
-5.67761
 10
28.8039
 20
-5.53392
 10
28.7931
 20
-5.38926
 10
28.7752
 20
-5.24355
 10
28.7496
 20
-5.09669
 10
28.7161
 20
-4.94858
 10
28.6741
 20
-4.79912
 10
28.6233
 20
-4.64789
 10
28.5929
 20
-4.56926
 10
28.5596
 20
-4.49128
 10
28.5235
 20
-4.41416
 10
28.4848
 20
-4.33785
 10
28.4436
 20
-4.26233
 10
28.4002
 20
-4.18753
 10
28.3547
 20
-4.11342
 10
28.3072
 20
-4.03996
 10
28.2579
 20
-3.96711
 10
28.207
 20
-3.89482
 10
28.1546
 20
-3.82306
 10
28.101
 20
-3.75177
 10
28.0462
 20
-3.68092
 10
27.9905
 20
-3.61047
 10
27.9341
 20
-3.54036
 10
27.877
 20
-3.47055
 10
27.8196
 20
-3.40099
 10
27.7619
 20
-3.33164
 10
27.7041
 20
-3.26243
 10
27.6479
 20
-3.1951
 10
27.6339
 20
-3.17975
 10
27.6189
 20
-3.16567
 10
27.6013
 20
-3.15117
 10
27.5815
 20
-3.13637
 10
27.5598
 20
-3.12132
 10
27.5365
 20
-3.10604
 10
27.5119
 20
-3.09047
 10
27.4864
 20
-3.07452
 10
27.4603
 20
-3.05804
 10
27.4339
 20
-3.04085
 10
27.4075
 20
-3.02271
 10
27.3813
 20
-3.00333
 10
27.3557
 20
-2.98233
 10
27.3309
 20
-2.95926
 10
27.3075
 20
-2.9336
 10
27.2861
 20
-2.90483
 10
27.2676
 20
-2.87254
 10
27.2532
 20
-2.8367
 10
27.2441
 20
-2.79781
 10
27.2412
 20
-2.75691
 10
27.2436
 20
-2.728
 10
27.2503
 20
-2.70047
 10
27.2606
 20
-2.67531
 10
27.2736
 20
-2.65308
 10
27.2881
 20
-2.63381
 10
27.3035
 20
-2.61717
 10
27.3192
 20
-2.60271
 10
27.3349
 20
-2.58998
 10
27.3505
 20
-2.5786
 10
27.3659
 20
-2.56827
 10
27.3808
 20
-2.55876
 10
27.3951
 20
-2.5499
 10
27.4088
 20
-2.54155
 10
27.4217
 20
-2.53364
 10
27.4335
 20
-2.52613
 10
27.4442
 20
-2.51902
 10
27.4534
 20
-2.51238
 10
27.4611
 20
-2.50631
 10
27.467
 20
-2.501
 10
27.4727
 20
-2.49512
 10
27.5399
 20
-2.41865
 10
27.6089
 20
-2.33863
 10
27.6783
 20
-2.25676
 10
27.7477
 20
-2.17332
 10
27.817
 20
-2.08861
 10
27.886
 20
-2.00289
 10
27.9544
 20
-1.91646
 10
28.0221
 20
-1.82959
 10
28.0887
 20
-1.74257
 10
28.1542
 20
-1.65568
 10
28.2182
 20
-1.5692
 10
28.2805
 20
-1.48342
 10
28.341
 20
-1.39862
 10
28.3994
 20
-1.31509
 10
28.4555
 20
-1.23312
 10
28.5091
 20
-1.153
 10
28.5599
 20
-1.07503
 10
28.6077
 20
-0.999503
 10
28.6523
 20
-0.926732
 10
28.6935
 20
-0.856956
 10
28.7953
 20
-0.677846
 10
28.8915
 20
-0.501679
 10
28.9824
 20
-0.328091
 10
29.0681
 20
-0.156639
 10
29.1486
 20
0.013116
 10
29.2243
 20
0.181621
 10
29.2951
 20
0.349322
 10
29.3614
 20
0.516672
 10
29.4232
 20
0.684121
 10
29.4806
 20
0.852128
 10
29.5339
 20
1.02115
 10
29.5833
 20
1.19164
 10
29.6287
 20
1.36406
 10
29.6704
 20
1.53887
 10
29.7086
 20
1.71652
 10
29.7433
 20
1.89747
 10
29.7748
 20
2.08218
 10
29.8031
 20
2.27108
 10
29.8284
 20
2.46463
 10
29.8507
 20
2.66271
 10
29.8813
 20
3.02212
 10
29.8976
 20
3.37744
 10
29.8997
 20
3.7293
 10
29.8874
 20
4.07781
 10
29.8609
 20
4.42309
 10
29.82
 20
4.76524
 10
29.7648
 20
5.10438
 10
29.6951
 20
5.44063
 10
29.6111
 20
5.7741
 10
29.5126
 20
6.1049
 10
29.3996
 20
6.43316
 10
29.2721
 20
6.75897
 10
29.1299
 20
7.08244
 10
28.9732
 20
7.40369
 10
28.8017
 20
7.7228
 10
28.6156
 20
8.03988
 10
28.4146
 20
8.35501
 10
28.1989
 20
8.6683
 10
27.9683
 20
8.97982
 10
27.7225
 20
9.29
 10
27.5723
 20
9.47096
 10
27.424
 20
9.64419
 10
27.2772
 20
9.81005
 10
27.1308
 20
9.96927
 10
26.9841
 20
10.1226
 10
26.8362
 20
10.2708
 10
26.6861
 20
10.4145
 10
26.5329
 20
10.5546
 10
26.3758
 20
10.6917
 10
26.2137
 20
10.8267
 10
26.0459
 20
10.9602
 10
25.8715
 20
11.093
 10
25.6894
 20
11.2258
 10
25.4988
 20
11.3593
 10
25.2988
 20
11.4942
 10
25.0886
 20
11.6313
 10
24.8672
 20
11.7712
 10
24.6337
 20
11.9148
 10
24.3874
 20
12.0625
 10
24.127
 20
12.2155
 10
23.8718
 20
12.3647
 10
23.6337
 20
12.5057
 10
23.412
 20
12.6392
 10
23.2057
 20
12.7659
 10
23.0138
 20
12.8865
 10
22.8353
 20
13.0019
 10
22.6692
 20
13.1129
 10
22.5145
 20
13.2201
 10
22.3702
 20
13.3245
 10
22.2354
 20
13.4268
 10
22.1091
 20
13.5277
 10
21.9904
 20
13.6281
 10
21.8782
 20
13.7286
 10
21.7718
 20
13.83
 10
21.6702
 20
13.9329
 10
21.5724
 20
14.0382
 10
21.4775
 20
14.1464
 10
21.3847
 20
14.2584
 10
21.2928
 20
14.3747
 10
21.1997
 20
14.4978
 10
21.007
 20
14.7866
 10
20.8464
 20
15.088
 10
20.717
 20
15.3989
 10
20.6163
 20
15.7182
 10
20.5418
 20
16.0449
 10
20.4913
 20
16.3778
 10
20.462
 20
16.7162
 10
20.4517
 20
17.0591
 10
20.4579
 20
17.4056
 10
20.4781
 20
17.7551
 10
20.51
 20
18.1065
 10
20.5512
 20
18.4593
 10
20.5994
 20
18.8124
 10
20.6522
 20
19.1652
 10
20.7074
 20
19.5167
 10
20.7625
 20
19.866
 10
20.8154
 20
20.2124
 10
20.8636
 20
20.555
 10
20.905
 20
20.8928
 10
20.9377
 20
21.2288
 10
20.9501
 20
21.3146
 10
20.9613
 20
21.3928
 10
20.9713
 20
21.4658
 10
20.9802
 20
21.5337
 10
20.9877
 20
21.5963
 10
20.9937
 20
21.6537
 10
20.9982
 20
21.7058
 10
21.001
 20
21.7524
 10
21.002
 20
21.7934
 10
21.0013
 20
21.8286
 10
20.9989
 20
21.8574
 10
20.9953
 20
21.8795
 10
20.9912
 20
21.8942
 10
20.9889
 20
21.8994
 10
20.9852
 20
21.8997
 10
20.9697
 20
21.8982
 10
20.9594
 20
21.8963
 10
20.9452
 20
21.8927
 10
20.9288
 20
21.8878
 10
20.9103
 20
21.8813
 10
20.89
 20
21.8734
 10
20.8677
 20
21.8639
 10
20.8437
 20
21.853
 10
20.8179
 20
21.8406
 10
20.7904
 20
21.8268
 10
20.7612
 20
21.8115
 10
20.7302
 20
21.7947
 10
20.6976
 20
21.7766
 10
20.6633
 20
21.7571
 10
20.6272
 20
21.7363
 10
20.5894
 20
21.7141
 10
20.5499
 20
21.6906
 10
20.5086
 20
21.6657
 10
20.4655
 20
21.6396
 10
20.4206
 20
21.6122
 10
20.3778
 20
21.5858
 10
20.1637
 20
21.4257
 10
19.9478
 20
21.2631
 10
19.7341
 20
21.1001
 10
19.5228
 20
20.9361
 10
19.3143
 20
20.7705
 10
19.109
 20
20.6026
 10
18.907
 20
20.4318
 10
18.7089
 20
20.2575
 10
18.5148
 20
20.0789
 10
18.3251
 20
19.8954
 10
18.1401
 20
19.7065
 10
17.96
 20
19.5114
 10
17.7853
 20
19.3095
 10
17.6162
 20
19.1002
 10
17.4529
 20
18.8828
 10
17.2959
 20
18.6566
 10
17.1453
 20
18.4209
 10
17.0015
 20
18.1752
 10
16.8648
 20
17.9186
 10
16.7351
 20
17.6497
 10
16.6881
 20
17.5468
 10
16.6441
 20
17.4494
 10
16.6029
 20
17.3574
 10
16.5643
 20
17.2698
 10
16.5278
 20
17.1853
 10
16.493
 20
17.1031
 10
16.4595
 20
17.0221
 10
16.4269
 20
16.9411
 10
16.3949
 20
16.8592
 10
16.363
 20
16.7752
 10
16.3308
 20
16.688
 10
16.2979
 20
16.5967
 10
16.2639
 20
16.5001
 10
16.2284
 20
16.3972
 10
16.1911
 20
16.2869
 10
16.1516
 20
16.1683
 10
16.1094
 20
16.0403
 10
16.0642
 20
15.9018
 10
16.0157
 20
15.7519
 10
15.9632
 20
15.5893
 10
15.9176
 20
15.4495
 10
15.8713
 20
15.3116
 10
15.8246
 20
15.1763
 10
15.7775
 20
15.0436
 10
15.7302
 20
14.914
 10
15.6829
 20
14.7877
 10
15.6355
 20
14.665
 10
15.5883
 20
14.5461
 10
15.5414
 20
14.4314
 10
15.4948
 20
14.3211
 10
15.4488
 20
14.2154
 10
15.4033
 20
14.1147
 10
15.3586
 20
14.0193
 10
15.3146
 20
13.9293
 10
15.2716
 20
13.845
 10
15.2296
 20
13.7667
 10
15.1885
 20
13.6945
 10
15.1486
 20
13.6287
 10
15.1096
 20
13.5693
 10
15.0726
 20
13.518
 10
15.0601
 20
13.5014
 10
15.0489
 20
13.4864
 10
15.0382
 20
13.4716
 10
15.028
 20
13.4572
 10
15.0183
 20
13.4432
 10
15.0092
 20
13.4297
 10
15.0007
 20
13.4167
 10
14.9928
 20
13.4044
 10
14.9857
 20
13.3929
 10
14.9793
 20
13.3822
 10
14.9737
 20
13.3724
 10
14.9727
 20
13.3706
 10
14.9775
 20
13.3616
 10
14.5009
 20
12.4197
 10
14.1904
 20
12.3909
 10
13.9343
 20
12.3633
 10
13.6769
 20
12.3317
 10
13.418
 20
12.2961
 10
13.1577
 20
12.2564
 10
12.8957
 20
12.2126
 10
12.6321
 20
12.1649
 10
12.3668
 20
12.113
 10
12.0998
 20
12.0571
 10
11.831
 20
11.9972
 10
11.5603
 20
11.9332
 10
11.2877
 20
11.8651
 10
11.0131
 20
11.7929
 10
10.7365
 20
11.7167
 10
10.4578
 20
11.6364
 10
10.177
 20
11.552
 10
9.89394
 20
11.4634
 10
9.60863
 20
11.3708
 10
9.321
 20
11.2741
 10
9.03121
 20
11.1733
 10
8.55773
 20
11.001
 10
8.09229
 20
10.8215
 10
7.63526
 20
10.6351
 10
7.18722
 20
10.4422
 10
6.74877
 20
10.2431
 10
6.32048
 20
10.0381
 10
5.90294
 20
9.82774
 10
5.49674
 20
9.61223
 10
5.10247
 20
9.39198
 10
4.7207
 20
9.16733
 10
4.35204
 20
8.93865
 10
3.99706
 20
8.70631
 10
3.65635
 20
8.47066
 10
3.33051
 20
8.23209
 10
3.02011
 20
7.99096
 10
2.72575
 20
7.74765
 10
2.44801
 20
7.50254
 10
2.18748
 20
7.25602
 10
1.94474
 20
7.00848
 10
1.71983
 20
6.75971
 10
1.62595
 20
6.64992
 10
1.53533
 20
6.54112
 10
1.44836
 20
6.43375
 10
1.36495
 20
6.32764
 10
1.28499
 20
6.22265
 10
1.20838
 20
6.1186
 10
1.13502
 20
6.01535
 10
1.0648
 20
5.91273
 10
0.997614
 20
5.81058
 10
0.933363
 20
5.70873
 10
0.87194
 20
5.60702
 10
0.81324
 20
5.50529
 10
0.757156
 20
5.40337
 10
0.703585
 20
5.30109
 10
0.652421
 20
5.19828
 10
0.603561
 20
5.09477
 10
0.556902
 20
4.99039
 10
0.512342
 20
4.88497
 10
0.46978
 20
4.77834
 10
0.429165
 20
4.67045
 10
0.377226
 20
4.52274
 10
0.329711
 20
4.37613
 10
0.286602
 20
4.23082
 10
0.247924
 20
4.08716
 10
0.213699
 20
3.94545
 10
0.183948
 20
3.80604
 10
0.158692
 20
3.66925
 10
0.137948
 20
3.53541
 10
0.121731
 20
3.40488
 10
0.110053
 20
3.27798
 10
0.102921
 20
3.15507
 10
0.100335
 20
3.03649
 10
0.102289
 20
2.9226
 10
0.108764
 20
2.81377
 10
0.119728
 20
2.71036
 10
0.135131
 20
2.61275
 10
0.154895
 20
2.5213
 10
0.178914
 20
2.43639
 10
0.207044
 20
2.35836
 10
0.238856
 20
2.28807
 10
0.323887
 20
2.14153
 10
0.429182
 20
1.99809
 10
0.555046
 20
1.85731
 10
0.701233
 20
1.71957
 10
0.867402
 20
1.58526
 10
1.05314
 20
1.45476
 10
1.25801
 20
1.32842
 10
1.48152
 20
1.20658
 10
1.72319
 20
1.08953
 10
1.98252
 20
0.97755
 10
2.25901
 20
0.87089
 10
2.55218
 20
0.769798
 10
2.86151
 20
0.674504
 10
3.18653
 20
0.58523
 10
3.52675
 20
0.502193
 10
3.88168
 20
0.425602
 10
4.25083
 20
0.355665
 10
4.63373
 20
0.292583
 10
5.0299
 20
0.236557
 10
5.43841
 20
0.187838
 10
5.56687
 20
0.17639
 10
5.70747
 20
0.168292
 10
5.85926
 20
0.163156
 10
6.02078
 20
0.160613
 10
6.19059
 20
0.160276
 10
6.36731
 20
0.161745
 10
6.54958
 20
0.164616
 10
6.73605
 20
0.168482
 10
6.92537
 20
0.172935
 10
7.11624
 20
0.177562
 10
7.30734
 20
0.181953
 10
7.49734
 20
0.185696
 10
7.68497
 20
0.188375
 10
7.86892
 20
0.189576
 10
8.04794
 20
0.188879
 10
8.22075
 20
0.185862
 10
8.38614
 20
0.180094
 10
8.5429
 20
0.171129
 10
8.68991
 20
0.158495
 10
8.82481
 20
0.141832
 10
9.34857
 20
0.0650793
 10
9.36952
 20
0.00537471
 10
9.37224
 20
-0.00233895
 10
9.37669
 20
-0.0147974
 10
9.38273
 20
-0.0315647
 10
9.39025
 20
-0.0522089
 10
9.39913
 20
-0.0762848
 10
9.40923
 20
-0.103353
 10
9.42045
 20
-0.132971
 10
9.43265
 20
-0.164697
 10
9.44571
 20
-0.198082
 10
9.4595
 20
-0.23268
 10
9.4739
 20
-0.268041
 10
9.48877
 20
-0.303708
 10
9.50398
 20
-0.339224
 10
9.51939
 20
-0.374116
 10
9.53485
 20
-0.407907
 10
9.5502
 20
-0.4401
 10
9.56526
 20
-0.470173
 10
9.57981
 20
-0.497562
 10
9.59386
 20
-0.522159
 10
9.62977
 20
-0.581084
 10
9.6671
 20
-0.639766
 10
9.70557
 20
-0.697887
 10
9.74511
 20
-0.755476
 10
9.78567
 20
-0.812565
 10
9.82719
 20
-0.869183
 10
9.8696
 20
-0.925363
 10
9.91284
 20
-0.981134
 10
9.95686
 20
-1.03653
 10
10.0016
 20
-1.09157
 10
10.0469
 20
-1.1463
 10
10.0929
 20
-1.20074
 10
10.1394
 20
-1.25493
 10
10.1863
 20
-1.3089
 10
10.2336
 20
-1.36268
 10
10.2812
 20
-1.41629
 10
10.3291
 20
-1.46978
 10
10.3772
 20
-1.52318
 10
10.4254
 20
-1.57651
 10
10.4747
 20
-1.63089
 10
10.5659
 20
-1.73765
 10
10.655
 20
-1.85289
 10
10.7417
 20
-1.97383
 10
10.8265
 20
-2.09901
 10
10.9102
 20
-2.22694
 10
10.9932
 20
-2.35612
 10
11.0761
 20
-2.48507
 10
11.1594
 20
-2.61223
 10
11.2434
 20
-2.73607
 10
11.3287
 20
-2.85504
 10
11.4156
 20
-2.96759
 10
11.5044
 20
-3.07215
 10
11.5953
 20
-3.16724
 10
11.6886
 20
-3.2514
 10
11.7843
 20
-3.32334
 10
11.8828
 20
-3.38198
 10
11.9844
 20
-3.42643
 10
12.09
 20
-3.45594
 10
12.2009
 20
-3.46964
 10
12.3188
 20
-3.46622
 10
12.3734
 20
-3.45666
 10
12.4237
 20
-3.44017
 10
12.4705
 20
-3.41709
 10
12.5147
 20
-3.38743
 10
12.5568
 20
-3.3512
 10
12.5969
 20
-3.30854
 10
12.6351
 20
-3.25977
 10
12.6713
 20
-3.20539
 10
12.7057
 20
-3.14602
 10
12.7382
 20
-3.08235
 10
12.769
 20
-3.01509
 10
12.7983
 20
-2.94495
 10
12.8263
 20
-2.87267
 10
12.8532
 20
-2.79893
 10
12.8793
 20
-2.72444
 10
12.9049
 20
-2.64986
 10
12.9303
 20
-2.57586
 10
12.9558
 20
-2.50306
 10
12.9817
 20
-2.43206
 10
13.008
 20
-2.36495
 10
13.054
 20
-2.24695
 10
13.0961
 20
-2.12912
 10
13.135
 20
-2.01014
 10
13.1709
 20
-1.89007
 10
13.2039
 20
-1.76899
 10
13.2342
 20
-1.64697
 10
13.2619
 20
-1.52408
 10
13.2874
 20
-1.4004
 10
13.3106
 20
-1.276
 10
13.3319
 20
-1.15096
 10
13.3514
 20
-1.02536
 10
13.3692
 20
-0.899271
 10
13.3855
 20
-0.772773
 10
13.4006
 20
-0.645943
 10
13.4146
 20
-0.51886
 10
13.4277
 20
-0.391601
 10
13.44
 20
-0.264243
 10
13.4518
 20
-0.136866
 10
13.4632
 20
-0.00954191
 10
13.4744
 20
0.116906
 10
13.4766
 20
0.14799
 10
13.4784
 20
0.181641
 10
13.4796
 20
0.217932
 10
13.4803
 20
0.25627
 10
13.4806
 20
0.296105
 10
13.4806
 20
0.33691
 10
13.4802
 20
0.378172
 10
13.4795
 20
0.419393
 10
13.4785
 20
0.460073
 10
13.4774
 20
0.499728
 10
13.4762
 20
0.537867
 10
13.4748
 20
0.574007
 10
13.4735
 20
0.607668
 10
13.4721
 20
0.638369
 10
13.4708
 20
0.665631
 10
13.4696
 20
0.68897
 10
13.4687
 20
0.707915
 10
13.4679
 20
0.721989
 10
13.4674
 20
0.730721
 10
13.4672
 20
0.733261
 10
13.4186
 20
1.45234
 10
13.6301
 20
1.36686
 10
13.6954
 20
1.34182
 10
13.7632
 20
1.31698
 10
13.8333
 20
1.29232
 10
13.9055
 20
1.26781
 10
13.9796
 20
1.2434
 10
14.0554
 20
1.21906
 10
14.1328
 20
1.19473
 10
14.2114
 20
1.17039
 10
14.2911
 20
1.14597
 10
14.3718
 20
1.12143
 10
14.4532
 20
1.09673
 10
14.5352
 20
1.07182
 10
14.6176
 20
1.04664
 10
14.7001
 20
1.02115
 10
14.7826
 20
0.995285
 10
14.865
 20
0.969007
 10
14.947
 20
0.942257
 10
15.0285
 20
0.914981
 10
15.1082
 20
0.887479
 10
15.3235
 20
0.815874
 10
15.5382
 20
0.752
 10
15.7533
 20
0.695216
 10
15.9688
 20
0.645219
 10
16.1847
 20
0.60171
 10
16.4009
 20
0.564391
 10
16.6175
 20
0.532964
 10
16.8343
 20
0.50713
 10
17.0515
 20
0.486594
 10
17.2689
 20
0.471056
 10
17.4865
 20
0.460221
 10
17.7043
 20
0.453789
 10
17.9223
 20
0.451464
 10
18.1405
 20
0.452946
 10
18.3587
 20
0.457937
 10
18.5771
 20
0.466136
 10
18.7955
 20
0.477243
 10
19.0139
 20
0.490958
 10
19.2323
 20
0.506979
 10
19.4514
 20
0.525065
 10
19.4802
 20
0.527227
 10
19.51
 20
0.528928
 10
19.5398
 20
0.530294
 10
19.5696
 20
0.531501
 10
19.5992
 20
0.532715
 10
19.6284
 20
0.534089
 10
19.657
 20
0.535768
 10
19.685
 20
0.537886
 10
19.712
 20
0.540563
 10
19.7379
 20
0.543903
 10
19.7625
 20
0.547987
 10
19.7855
 20
0.552867
 10
19.8067
 20
0.558559
 10
19.8259
 20
0.565041
 10
19.8431
 20
0.572246
 10
19.858
 20
0.580088
 10
19.8708
 20
0.588492
 10
19.8818
 20
0.597467
 10
19.8911
 20
0.607185
 10
19.8993
 20
0.618058
 10
19.9096
 20
0.636122
 10
19.9173
 20
0.654621
 10
19.9227
 20
0.674117
 10
19.926
 20
0.695055
 10
19.9273
 20
0.717711
 10
19.9264
 20
0.74217
 10
19.9234
 20
0.768372
 10
19.9183
 20
0.796165
 10
19.9112
 20
0.825348
 10
19.9023
 20
0.855714
 10
19.8917
 20
0.887058
 10
19.8798
 20
0.919194
 10
19.8667
 20
0.951955
 10
19.8527
 20
0.985196
 10
19.8381
 20
1.01879
 10
19.8231
 20
1.05264
 10
19.8082
 20
1.08665
 10
19.7934
 20
1.12077
 10
19.7791
 20
1.15497
 10
19.7664
 20
1.18742
 10
19.7203
 20
1.30133
 10
19.6683
 20
1.4162
 10
19.6103
 20
1.5332
 10
19.5473
 20
1.65168
 10
19.4799
 20
1.77107
 10
19.4091
 20
1.89079
 10
19.3357
 20
2.01026
 10
19.2604
 20
2.12896
 10
19.1841
 20
2.24633
 10
19.1075
 20
2.36186
 10
19.0316
 20
2.47502
 10
18.957
 20
2.5853
 10
18.8847
 20
2.69221
 10
18.8154
 20
2.79527
 10
18.7498
 20
2.894
 10
18.6888
 20
2.98799
 10
18.6331
 20
3.07684
 10
18.5834
 20
3.16027
 10
18.5405
 20
3.23813
 10
18.4377
 20
3.44733
 10
18.6013
 20
3.45163
 10
18.6238
 20
3.45221
 10
18.6597
 20
3.45311
 10
18.7079
 20
3.4543
 10
18.7671
 20
3.45571
 10
18.8363
 20
3.4573
 10
18.9142
 20
3.45903
 10
18.9997
 20
3.46083
 10
19.0915
 20
3.46268
 10
19.1884
 20
3.46451
 10
19.2893
 20
3.46628
 10
19.3931
 20
3.46794
 10
19.4984
 20
3.46945
 10
19.6041
 20
3.47074
 10
19.7091
 20
3.47178
 10
19.8122
 20
3.47252
 10
19.9122
 20
3.47291
 10
20.0078
 20
3.47289
 10
20.0981
 20
3.47243
 10
20.1814
 20
3.47146
 10
20.2541
 20
3.47052
 10
20.3265
 20
3.46988
 10
20.3991
 20
3.46945
 10
20.4719
 20
3.46914
 10
20.5448
 20
3.46886
 10
20.6179
 20
3.46853
 10
20.6911
 20
3.46805
 10
20.7644
 20
3.46734
 10
20.8378
 20
3.4663
 10
20.9113
 20
3.46484
 10
20.9848
 20
3.46287
 10
21.0585
 20
3.4603
 10
21.1321
 20
3.45703
 10
21.2059
 20
3.45298
 10
21.2796
 20
3.44805
 10
21.3534
 20
3.44214
 10
21.4272
 20
3.43517
 10
21.501
 20
3.42703
 10
21.5747
 20
3.41764
 10
21.6482
 20
3.40691
 10
21.7551
 20
3.38963
 10
21.8617
 20
3.37107
 10
21.968
 20
3.35124
 10
22.0741
 20
3.33015
 10
22.1799
 20
3.30784
 10
22.2855
 20
3.28432
 10
22.3908
 20
3.25963
 10
22.4958
 20
3.23379
 10
22.6004
 20
3.20682
 10
22.7048
 20
3.17874
 10
22.8088
 20
3.14958
 10
22.9125
 20
3.11937
 10
23.0159
 20
3.08813
 10
23.1189
 20
3.05588
 10
23.2215
 20
3.02265
 10
23.3237
 20
2.98846
 10
23.4255
 20
2.95333
 10
23.5269
 20
2.9173
 10
23.6278
 20
2.88038
 10
23.7279
 20
2.84277
 10
23.8139
 20
2.81057
 10
23.9006
 20
2.77896
 10
23.9882
 20
2.74753
 10
24.0767
 20
2.71604
 10
24.1656
 20
2.68425
 10
24.2549
 20
2.65193
 10
24.3442
 20
2.61882
 10
24.4333
 20
2.58468
 10
24.522
 20
2.54927
 10
24.6101
 20
2.51231
 10
24.6974
 20
2.47355
 10
24.7836
 20
2.43273
 10
24.8684
 20
2.38957
 10
24.9517
 20
2.34381
 10
25.0332
 20
2.29517
 10
25.1127
 20
2.24337
 10
25.1898
 20
2.18813
 10
25.2644
 20
2.12919
 10
25.336
 20
2.06628
 10
25.4039
 20
1.9998
 10
25.4735
 20
1.92588
 10
25.5403
 20
1.85155
 10
25.6048
 20
1.77598
 10
25.6667
 20
1.69898
 10
25.7261
 20
1.6204
 10
25.7827
 20
1.54005
 10
25.8366
 20
1.45777
 10
25.8874
 20
1.37341
 10
25.9352
 20
1.28681
 10
25.9798
 20
1.19783
 10
26.021
 20
1.10632
 10
26.0588
 20
1.01214
 10
26.093
 20
0.915168
 10
26.1235
 20
0.815265
 10
26.1502
 20
0.712304
 10
26.1731
 20
0.606155
 10
26.1919
 20
0.496686
 10
26.2067
 20
0.38376
 10
26.2173
 20
0.267238
 10
26.2237
 20
0.147038
 10
26.2255
 20
0.0461736
 10
26.224
 20
-0.0577288
 10
26.219
 20
-0.164239
 10
26.2103
 20
-0.272848
 10
26.1979
 20
-0.383043
 10
26.1816
 20
-0.494309
 10
26.1612
 20
-0.606128
 10
26.1365
 20
-0.717978
 10
26.1075
 20
-0.829339
 10
26.0738
 20
-0.939687
 10
26.0355
 20
-1.04849
 10
25.9921
 20
-1.15523
 10
25.9436
 20
-1.25935
 10
25.8898
 20
-1.36031
 10
25.8303
 20
-1.45754
 10
25.7651
 20
-1.55046
 10
25.6939
 20
-1.63845
 10
25.6164
 20
-1.72088
 10
25.5326
 20
-1.79706
 10
25.4418
 20
-1.86656
 10
25.4126
 20
-1.8847
 10
25.382
 20
-1.89955
 10
25.3509
 20
-1.91101
 10
25.3196
 20
-1.91939
 10
25.2885
 20
-1.92511
 10
25.2578
 20
-1.92855
 10
25.2275
 20
-1.93012
 10
25.1977
 20
-1.93016
 10
25.1684
 20
-1.929
 10
25.1397
 20
-1.92692
 10
25.1114
 20
-1.92417
 10
25.0838
 20
-1.921
 10
25.0567
 20
-1.91762
 10
25.0303
 20
-1.91424
 10
25.0046
 20
-1.91104
 10
24.9797
 20
-1.90822
 10
24.9557
 20
-1.90593
 10
24.9328
 20
-1.90432
 10
24.9111
 20
-1.90352
 10
24.8885
 20
-1.90364
 10
24.7591
 20
-1.90546
 10
24.628
 20
-1.90368
 10
24.4973
 20
-1.89891
 10
24.3672
 20
-1.89178
 10
24.2374
 20
-1.88293
 10
24.1082
 20
-1.87298
 10
23.9794
 20
-1.86253
 10
23.8511
 20
-1.8522
 10
23.7232
 20
-1.84259
 10
23.5958
 20
-1.8343
 10
23.4689
 20
-1.8279
 10
23.3425
 20
-1.82399
 10
23.2165
 20
-1.82314
 10
23.0911
 20
-1.82591
 10
22.9661
 20
-1.83287
 10
22.8416
 20
-1.84458
 10
22.7176
 20
-1.86159
 10
22.5939
 20
-1.88446
 10
22.4705
 20
-1.91375
 10
22.347
 20
-1.95016
 10
22.1959
 20
-2.0025
 10
22.0477
 20
-2.06032
 10
21.9027
 20
-2.12329
 10
21.761
 20
-2.19123
 10
21.6226
 20
-2.26398
 10
21.4875
 20
-2.34134
 10
21.3557
 20
-2.42314
 10
21.2272
 20
-2.5092
 10
21.1021
 20
-2.59934
 10
20.9803
 20
-2.69337
 10
20.862
 20
-2.79111
 10
20.747
 20
-2.89238
 10
20.6355
 20
-2.997
 10
20.5274
 20
-3.10478
 10
20.4229
 20
-3.21553
 10
20.3218
 20
-3.32908
 10
20.2243
 20
-3.44522
 10
20.1303
 20
-3.56378
 10
20.04
 20
-3.68457
 10
19.9528
 20
-3.8079
 10
19.9431
 20
-3.82213
 10
19.9329
 20
-3.83716
 10
19.9228
 20
-3.85239
 10
19.9128
 20
-3.86775
 10
19.9032
 20
-3.88316
 10
19.8941
 20
-3.89853
 10
19.8855
 20
-3.91375
 10
19.8777
 20
-3.9287
 10
19.8707
 20
-3.94324
 10
19.8646
 20
-3.95722
 10
19.8597
 20
-3.97045
 10
19.8558
 20
-3.98276
 10
19.853
 20
-3.99394
 10
19.8513
 20
-4.00381
 10
19.8506
 20
-4.01222
 10
19.8507
 20
-4.01912
 10
19.8514
 20
-4.02462
 10
19.8525
 20
-4.02902
 10
19.854
 20
-4.03283
 10
19.8559
 20
-4.03637
 10
19.8584
 20
-4.03978
 10
19.861
 20
-4.04235
 10
19.8644
 20
-4.04497
 10
19.8694
 20
-4.04785
 10
19.8765
 20
-4.05092
 10
19.8857
 20
-4.05394
 10
19.8973
 20
-4.05668
 10
19.9109
 20
-4.05896
 10
19.9263
 20
-4.0607
 10
19.9433
 20
-4.06187
 10
19.9618
 20
-4.06253
 10
19.9813
 20
-4.06274
 10
20.0019
 20
-4.06262
 10
20.0232
 20
-4.0623
 10
20.0452
 20
-4.06192
 10
20.0678
 20
-4.06164
 10
20.0908
 20
-4.06165
 10
20.1142
 20
-4.06215
 10
20.138
 20
-4.06336
 10
20.1597
 20
-4.06534
 10
20.2494
 20
-4.07371
 10
20.3375
 20
-4.07842
 10
20.4264
 20
-4.08015
 10
20.516
 20
-4.07935
 10
20.6064
 20
-4.07649
 10
20.6975
 20
-4.07205
 10
20.7892
 20
-4.06653
 10
20.8815
 20
-4.06042
 10
20.9744
 20
-4.05424
 10
21.0677
 20
-4.04849
 10
21.1616
 20
-4.0437
 10
21.256
 20
-4.04042
 10
21.3507
 20
-4.03918
 10
21.4459
 20
-4.04055
 10
21.5414
 20
-4.04508
 10
21.6372
 20
-4.05335
 10
21.7332
 20
-4.06594
 10
21.8294
 20
-4.08343
 10
21.9257
 20
-4.1064
 10
22.0204
 20
-4.13498
 10
22.0641
 20
-4.14977
 10
22.1059
 20
-4.16411
 10
22.147
 20
-4.17841
 10
22.1873
 20
-4.19261
 10
22.2265
 20
-4.20666
 10
22.2645
 20
-4.22049
 10
22.3013
 20
-4.23405
 10
22.3366
 20
-4.24729
 10
22.3704
 20
-4.26016
 10
22.4024
 20
-4.2726
 10
22.4326
 20
-4.28456
 10
22.4609
 20
-4.29601
 10
22.4871
 20
-4.3069
 10
22.5112
 20
-4.3172
 10
22.5331
 20
-4.32691
 10
22.5527
 20
-4.33606
 10
22.5704
 20
-4.3448
 10
22.5866
 20
-4.35351
 10
22.6028
 20
-4.3635
 10
22.6133
 20
-4.3717
 10
22.6146
 20
-4.37278
 10
22.6154
 20
-4.37328
 10
22.6218
 20
-4.37675
 10
22.6322
 20
-4.38185
 10
22.6458
 20
-4.38807
 10
22.6622
 20
-4.39514
 10
22.6809
 20
-4.40293
 10
22.7019
 20
-4.41132
 10
22.7249
 20
-4.42022
 10
22.7498
 20
-4.42959
 10
22.7764
 20
-4.43934
 10
22.8044
 20
-4.44942
 10
22.8339
 20
-4.45978
 10
22.8646
 20
-4.47036
 10
22.8965
 20
-4.48112
 10
22.9293
 20
-4.49199
 10
22.963
 20
-4.50294
 10
22.9973
 20
-4.51391
 10
23.0323
 20
-4.52486
 10
23.0668
 20
-4.53546
 10
23.1358
 20
-4.55489
 10
23.2021
 20
-4.57056
 10
23.2668
 20
-4.58302
 10
23.3299
 20
-4.59255
 10
23.3919
 20
-4.59941
 10
23.4529
 20
-4.60388
 10
23.513
 20
-4.60621
 10
23.5726
 20
-4.60666
 10
23.6317
 20
-4.60548
 10
23.6907
 20
-4.60292
 10
23.7496
 20
-4.59923
 10
23.8086
 20
-4.59466
 10
23.8678
 20
-4.58949
 10
23.9276
 20
-4.58399
 10
23.9879
 20
-4.57843
 10
24.0489
 20
-4.5731
 10
24.1108
 20
-4.56829
 10
24.1738
 20
-4.5643
 10
24.2378
 20
-4.56145
 10
24.3011
 20
-4.56008
 10
24.3243
 20
-4.55927
 10
24.3466
 20
-4.55747
 10
24.3699
 20
-4.55471
 10
24.3941
 20
-4.55113
 10
24.4192
 20
-4.54685
 10
24.445
 20
-4.54206
 10
24.4716
 20
-4.53694
 10
24.4988
 20
-4.53166
 10
24.5266
 20
-4.52645
 10
24.5551
 20
-4.52151
 10
24.5841
 20
-4.51708
 10
24.6137
 20
-4.51341
 10
24.644
 20
-4.51077
 10
24.6748
 20
-4.50946
 10
24.7063
 20
-4.50981
 10
24.7383
 20
-4.51218
 10
24.7707
 20
-4.51696
 10
24.8034
 20
-4.52453
 10
24.8362
 20
-4.53524
 10
24.8686
 20
-4.54943
 10
24.8958
 20
-4.56482
 10
24.9208
 20
-4.5826
 10
24.9431
 20
-4.60211
 10
24.9628
 20
-4.62282
 10
24.9803
 20
-4.6443
 10
24.9957
 20
-4.66618
 10
25.0094
 20
-4.68819
 10
25.0217
 20
-4.71013
 10
25.0329
 20
-4.73183
 10
25.0432
 20
-4.75316
 10
25.0528
 20
-4.77398
 10
25.0619
 20
-4.79417
 10
25.0707
 20
-4.81359
 10
25.0793
 20
-4.8321
 10
25.0878
 20
-4.84956
 10
25.0963
 20
-4.86582
 10
25.1048
 20
-4.88076
 10
25.1134
 20
-4.89428
 10
25.122
 20
-4.90629
 10
25.1323
 20
-4.91873
 10
25.1834
 20
-4.97721
 10
25.2328
 20
-5.0356
 10
25.2795
 20
-5.09218
 10
25.3242
 20
-5.14705
 10
25.3676
 20
-5.20033
 10
25.4102
 20
-5.25213
 10
25.4527
 20
-5.30263
 10
25.4959
 20
-5.35203
 10
25.5403
 20
-5.40054
 10
25.5867
 20
-5.44842
 10
25.6358
 20
-5.49593
 10
25.6883
 20
-5.5433
 10
25.745
 20
-5.5908
 10
25.8065
 20
-5.63865
 10
25.8738
 20
-5.68705
 10
25.9475
 20
-5.7362
 10
26.0282
 20
-5.78625
 10
26.1168
 20
-5.83736
 10
26.2139
 20
-5.88968
 10
26.3208
 20
-5.94369
 10
26.3714
 20
-5.96868
 10
26.4236
 20
-5.99495
 10
26.4764
 20
-6.022
 10
26.5296
 20
-6.04969
 10
26.583
 20
-6.0779
 10
26.6363
 20
-6.10649
 10
26.6894
 20
-6.13532
 10
26.7419
 20
-6.16427
 10
26.7937
 20
-6.1932
 10
26.8445
 20
-6.22197
 10
26.8941
 20
-6.25047
 10
26.9423
 20
-6.27855
 10
26.9888
 20
-6.30608
 10
27.0333
 20
-6.33295
 10
27.0758
 20
-6.35902
 10
27.1159
 20
-6.38419
 10
27.1535
 20
-6.40833
 10
27.1884
 20
-6.43136
 10
27.2204
 20
-6.4532
 10
27.249
 20
-6.47356
 10
27.3113
 20
-6.51952
 10
27.3699
 20
-6.56366
 10
27.4251
 20
-6.60642
 10
27.4772
 20
-6.64803
 10
27.5263
 20
-6.68872
 10
27.5728
 20
-6.72872
 10
27.6166
 20
-6.76825
 10
27.658
 20
-6.80752
 10
27.6971
 20
-6.84674
 10
27.7342
 20
-6.88612
 10
27.7692
 20
-6.92585
 10
27.8025
 20
-6.96611
 10
27.834
 20
-7.00705
 10
27.864
 20
-7.04884
 10
27.8925
 20
-7.09163
 10
27.9199
 20
-7.13556
 10
27.9461
 20
-7.18079
 10
27.9714
 20
-7.22748
 10
27.996
 20
-7.2758
 10
28.0214
 20
-7.32879
 10
28.0365
 20
-7.36843
 10
28.0467
 20
-7.41147
 10
28.0521
 20
-7.45405
 10
28.0538
 20
-7.49589
 10
28.0528
 20
-7.53689
 10
28.0499
 20
-7.57698
 10
28.0456
 20
-7.61606
 10
28.0408
 20
-7.65399
 10
28.0359
 20
-7.69053
 10
28.0313
 20
-7.72538
 10
28.0277
 20
-7.75815
 10
28.0254
 20
-7.78836
 10
28.0247
 20
-7.81544
 10
28.0258
 20
-7.83877
 10
28.0285
 20
-7.85774
 10
28.0324
 20
-7.87203
 10
28.0369
 20
-7.882
 10
28.0417
 20
-7.88905
 10
28.048
 20
-7.89513
 10
28.054
 20
-7.89898
  0
ENDSEC
  0
EOF
