<?xml version="1.0" encoding="UTF-8" standalone="no"?>
<!-- Created with Inkscape (http://www.inkscape.org/) -->

<svg
   width="30.000301mm"
   height="30mm"
   viewBox="0 0 30.000302 29.999999"
   version="1.1"
   id="svg1"
   xmlns="http://www.w3.org/2000/svg"
   xmlns:svg="http://www.w3.org/2000/svg">
  <defs
     id="defs1" />
  <g
     id="layer1"
     transform="translate(-146.09143,-39.779443)">
    <path
       d="m 167.04733,39.781971 c -0.11742,0.01812 -0.31629,0.132795 -0.63466,0.328817 -1.45696,1.088521 -2.82924,2.125387 -3.67699,3.976464 -0.32816,0.716535 -0.4136,0.944529 -0.77646,2.072058 -0.30079,0.934655 -0.64763,1.74344 -0.87598,2.042713 -0.0823,0.107793 -0.13956,0.205615 -0.12748,0.21734 l -0.42802,0.845924 c -1.70378,0.144618 -3.49127,0.558444 -5.43893,1.246582 -3.19179,1.127719 -5.90042,2.764034 -7.35296,4.441808 -0.64721,0.747579 -1.04016,1.38402 -1.30953,2.121086 -0.36614,1.0019 -0.4384,1.961827 -0.18536,2.462415 0.53049,1.049617 2.49639,1.851849 5.27822,2.153881 0.83424,0.09058 2.54611,-0.07706 3.38338,0.04564 l 0.4628,0.06782 c 0,0 0.13141,0.37661 0.2335,0.547895 0.24362,0.40878 0.56989,0.768626 0.89186,1.123961 0.59966,0.661752 1.02093,1.962701 1.92929,1.869022 0.47662,-0.04915 0.5976,-0.736054 0.77223,-1.164653 0.32265,-0.791854 0.39837,-1.662922 0.47293,-2.510179 0.0182,-0.209511 -0.007,-0.630701 -0.007,-0.630701 l -0.0379,-0.56026 c 0.42038,0.174696 1.01809,0.321614 1.54698,0.507056 1.44772,0.507612 2.92244,0.494006 4.38314,0.36739 0.18026,-0.01563 0.42717,0.0093 0.52375,-0.137671 0.12455,-0.189434 -0.0442,-0.450804 -0.12372,-0.661402 -0.28979,-0.767238 -1.07205,-1.704794 -1.26307,-2.127015 0,0 1.05603,-0.02817 1.584,-0.02001 0.48469,0.0075 0.97428,-0.01101 1.4528,0.0634 0.70434,0.109404 1.39655,0.306324 2.05976,0.558923 0.57275,0.218148 1.22123,0.385136 1.63966,0.819379 0.45765,0.474959 0.76392,0.995983 0.79132,1.786277 0.0221,0.637983 -0.16233,1.524664 -0.73888,1.927698 -0.13416,0.09378 -0.33144,0.01457 -0.49732,0.01944 -0.85678,0.02523 -1.71551,-0.226812 -2.57111,0.05126 -1.0451,0.339634 -1.86913,1.055908 -2.44572,1.895883 -0.0674,0.09814 -0.16303,0.239172 -0.0993,0.339556 0.0671,0.105751 0.25102,0.05981 0.37911,0.07457 0.60916,0.07025 1.23858,-0.136247 1.83936,0.06533 0.28146,0.09442 0.53413,0.193476 0.56144,0.219976 0.0273,0.02652 0.24659,0.108004 0.48721,0.18118 0.48786,0.148385 0.84347,0.03242 1.26538,0.02864 0.17344,-0.0016 0.36586,-0.09759 0.51996,-0.02103 0.12654,0.06285 0.13962,0.240481 0.23217,0.344459 0.3548,0.398563 0.46495,0.680065 1.22008,1.049678 0.33377,0.163363 0.74509,0.398009 0.91417,0.5214 0.42092,0.307219 0.58583,0.48536 0.73915,0.813736 0.089,0.190778 -0.10939,0.522347 0.0819,0.62222 0.0768,0.04011 0.16918,-0.05625 0.23622,-0.109339 0.11592,-0.09462 0.21102,-0.221272 0.26172,-0.35899 0.33714,-0.91618 0.58835,-1.865514 0.20804,-2.908238 -0.20163,-0.552947 -0.61128,-1.025194 -0.99408,-1.484595 -0.11324,-0.135919 -0.3829,-0.197815 -0.38178,-0.371867 5.1e-4,-0.09232 0.14249,-0.12437 0.20479,-0.194546 0.45849,-0.516524 0.96498,-1.191328 1.23377,-1.655837 0.70261,-1.214374 1.0289,-2.206946 1.17022,-3.559955 0.25378,-2.429865 -0.4502,-4.623674 -2.15011,-6.700136 -1.01859,-1.244204 -1.8359,-1.909518 -3.62262,-2.948736 -1.76077,-1.024134 -2.28892,-1.435154 -2.89628,-2.253987 -1.36867,-1.845205 -0.42572,-4.446239 -0.24425,-6.661106 0.0835,-0.573775 0.11459,-0.810977 -0.0809,-0.780574 z"
       id="path7-4-37"
       style="display:inline;stroke-width:0.999997" />
  </g>
</svg>
